<?xml version="1.0" encoding="utf-8"?>
<!-- Generator: Adobe Illustrator 16.0.0, SVG Export Plug-In . SVG Version: 6.00 Build 0)  -->
<!DOCTYPE svg PUBLIC "-//W3C//DTD SVG 1.1//EN" "http://www.w3.org/Graphics/SVG/1.1/DTD/svg11.dtd">
<svg version="1.1" id="Vrstva_1" xmlns="http://www.w3.org/2000/svg" xmlns:xlink="http://www.w3.org/1999/xlink" x="0px" y="0px"
	 width="199.217px" height="90px" viewBox="0 0 199.217 90" enable-background="new 0 0 199.217 90" xml:space="preserve">
<rect fill="#FFFFFF" width="199.217" height="90"/>
<g>
	<g>
		<path fill="#094E8F" d="M177.101,9.151c1.252,0.556,2.44,1.235,3.554,2.012l-27.164,32.313c-0.958-0.964-1.828-2.019-2.588-3.152
			L177.101,9.151"/>
		<path fill="#094E8F" d="M168.527,7.366c-11.706,0-21.192,9.49-21.192,21.192c0,3.387,0.78,6.548,2.193,9.386l24.984-29.713
			C172.614,7.671,170.607,7.366,168.527,7.366"/>
		<path fill="#094E8F" d="M182.667,12.777l-27.255,32.42c1.057,0.833,2.206,1.578,3.412,2.199l26.598-31.625
			C184.606,14.693,183.673,13.678,182.667,12.777"/>
		<path fill="#094E8F" d="M186.896,17.992L161.27,48.467c2.254,0.818,4.721,1.284,7.258,1.284c11.704,0,21.191-9.489,21.191-21.192
			C189.719,24.71,188.689,21.103,186.896,17.992"/>
	</g>
	<g>
		<path fill="#094E8F" d="M145.509,56.973l-7.08,8.473h5.261c2.123-2.541,5.038-6.034,7.08-8.473H145.509z"/>
		<path fill="#094E8F" d="M136.894,56.969l-7.129,8.477h5.237c2.052-2.455,5.014-5.949,7.126-8.473L136.894,56.969z"/>
		<path fill="#094E8F" d="M133.51,56.969L10.66,56.973v8.473h115.721C128.375,63.106,131.325,59.583,133.51,56.969z"/>
		<polygon fill="#094E8F" points="154.116,56.973 146.972,65.446 182.662,65.446 189.789,56.971 		"/>
	</g>
	<g>
		<path fill="#094E8F" d="M191.952,15.333c-0.57,0-1.108-0.105-1.598-0.314c-0.489-0.208-0.922-0.5-1.286-0.866
			c-0.361-0.367-0.652-0.802-0.86-1.291c-0.208-0.49-0.314-1.024-0.314-1.587s0.106-1.097,0.314-1.587
			c0.208-0.489,0.499-0.922,0.86-1.29c0.364-0.367,0.797-0.658,1.286-0.867c0.49-0.208,1.028-0.314,1.598-0.314
			c0.564,0,1.098,0.106,1.587,0.314c0.489,0.209,0.92,0.5,1.281,0.867c0.358,0.368,0.646,0.802,0.853,1.29
			c0.209,0.49,0.314,1.024,0.314,1.587s-0.105,1.097-0.314,1.587c-0.208,0.489-0.495,0.922-0.853,1.29
			c-0.36,0.367-0.792,0.66-1.281,0.867C193.049,15.228,192.516,15.333,191.952,15.333z M191.941,7.896
			c-0.478,0-0.922,0.089-1.324,0.264c-0.403,0.176-0.754,0.421-1.042,0.728c-0.29,0.306-0.52,0.671-0.686,1.083
			c-0.165,0.411-0.248,0.853-0.248,1.315s0.083,0.905,0.248,1.316c0.166,0.412,0.396,0.777,0.686,1.083
			c0.288,0.307,0.639,0.552,1.042,0.728c0.402,0.176,0.849,0.265,1.324,0.265c0.475,0,0.92-0.089,1.318-0.265
			c0.399-0.176,0.75-0.422,1.042-0.728c0.292-0.307,0.523-0.671,0.685-1.082c0.162-0.412,0.243-0.854,0.243-1.317
			s-0.081-0.905-0.243-1.316c-0.162-0.411-0.392-0.775-0.685-1.082c-0.293-0.307-0.644-0.552-1.042-0.728
			C192.861,7.985,192.417,7.896,191.941,7.896z M192.989,13.459l-0.988-1.669h-0.715v1.669h-0.667V9.125h1.479
			c0.487,0,0.855,0.127,1.091,0.376c0.236,0.248,0.356,0.551,0.356,0.9c0,0.314-0.08,0.589-0.239,0.815
			c-0.139,0.201-0.342,0.359-0.604,0.47l1.05,1.773H192.989z M192.087,11.192c0.256,0,0.445-0.069,0.579-0.209
			c0.136-0.143,0.2-0.329,0.2-0.571c0-0.296-0.091-0.689-0.893-0.689h-0.688v1.469H192.087z"/>
	</g>
	<g>
		<path fill="#094E8F" d="M38.97,44.852c-2.506,2.446-6.623,3.878-11.218,3.878H10.686V8.392h14.202
			c5.967,0,10.562,1.551,13.426,4.416c2.745,2.745,5.072,6.266,5.072,16.708C43.386,38.466,41.476,42.345,38.97,44.852z
			 M30.854,19.193c-1.373-1.552-3.461-2.328-6.444-2.328h-3.461v23.392h5.37c1.85,0,3.461-0.538,4.654-1.731
			c1.253-1.074,2.148-3.759,2.148-9.309C33.122,23.37,32.167,20.685,30.854,19.193z"/>
		<path fill="#094E8F" d="M80.798,35.96c0,9.07-6.803,13.665-15.873,13.665c-9.07,0-15.873-4.594-15.873-13.665V8.392h10.264v26.077
			c0,4.296,2.327,6.444,5.609,6.444c3.342,0,5.609-2.148,5.609-6.444V8.392h10.264V35.96z"/>
		<path fill="#094E8F" d="M102.16,49.625c-5.967,0-12.054-1.969-14.918-3.401l1.85-8.175c3.64,1.611,8.056,2.865,11.994,2.865
			c2.864,0,5.013-1.313,5.013-4.118c0-1.969-1.015-3.282-3.521-3.878l-4.356-1.014c-6.504-1.492-11.457-4.058-11.457-11.875
			c0-7.519,5.072-12.531,14.739-12.531c5.012,0,9.786,1.611,12.173,2.804l-2.805,8.175c-1.551-0.656-5.191-2.268-9.01-2.268
			c-2.924,0-4.595,1.492-4.595,3.58c0,1.91,1.253,2.805,2.566,3.103l4.833,1.134c7.042,1.671,11.935,4.476,11.935,12.233
			C116.6,43.36,112.96,49.625,102.16,49.625z"/>
		<path fill="#094E8F" d="M122.567,8.392h10.263v31.865h14.142v8.473h-24.405V8.392z"/>
	</g>
	<g>
		<path fill="#56555C" d="M10.688,83.221v-9.305h5.031v1.21h-3.602v2.815h3.019v1.21h-3.019v2.858h4.113v1.211H10.688z"/>
		<path fill="#56555C" d="M25.391,83.425l-4.352-4.77c-0.349-0.379-0.713-0.787-1.091-1.225c-0.378-0.438-0.728-0.846-1.048-1.226
			L18.87,76.22c0.02,0.429,0.029,0.837,0.029,1.226s0,0.758,0,1.108v4.667H17.47v-9.305h0.975l3.988,4.375
			c0.136,0.146,0.286,0.313,0.451,0.503s0.334,0.382,0.509,0.576c0.174,0.195,0.347,0.392,0.517,0.591
			c0.169,0.199,0.327,0.387,0.473,0.562l0.029-0.015c-0.02-0.359-0.029-0.729-0.029-1.108s0-0.738,0-1.079v-4.404h1.429v9.509
			H25.391z"/>
		<path fill="#56555C" d="M27.708,83.221v-9.305h5.031v1.21h-3.602v2.815h3.019v1.21h-3.019v2.858h4.113v1.211H27.708z"/>
		<path fill="#56555C" d="M40.12,83.221l-2.932-4.084h-1.313v4.084h-1.4v-9.305h2.946c0.331,0,0.661,0.053,0.992,0.16
			s0.629,0.268,0.897,0.481s0.486,0.486,0.657,0.816c0.17,0.331,0.255,0.715,0.255,1.152c0,0.622-0.158,1.13-0.474,1.524
			c-0.316,0.394-0.702,0.683-1.159,0.867l3.179,4.303H40.12z M38.793,76.527c0-0.243-0.044-0.452-0.131-0.627
			s-0.207-0.321-0.357-0.438c-0.151-0.117-0.323-0.204-0.518-0.263c-0.195-0.059-0.394-0.088-0.598-0.088h-1.298v2.83h1.298
			c0.205,0,0.403-0.027,0.598-0.081c0.194-0.053,0.367-0.138,0.518-0.255c0.151-0.116,0.27-0.265,0.357-0.444
			C38.749,76.981,38.793,76.77,38.793,76.527z"/>
		<path fill="#56555C" d="M50.271,82.39c-0.447,0.359-0.951,0.617-1.51,0.772s-1.188,0.233-1.889,0.233
			c-0.622,0-1.24-0.104-1.852-0.313c-0.613-0.209-1.16-0.515-1.641-0.919c-0.481-0.403-0.87-0.906-1.167-1.51
			c-0.297-0.603-0.445-1.303-0.445-2.1c0-0.807,0.153-1.512,0.46-2.115c0.306-0.603,0.701-1.105,1.182-1.509
			c0.482-0.403,1.02-0.708,1.614-0.912c0.593-0.204,1.182-0.306,1.767-0.306c0.642,0,1.219,0.067,1.729,0.204
			c0.511,0.136,0.937,0.315,1.277,0.539l-0.262,1.226c-0.341-0.224-0.733-0.403-1.176-0.54c-0.443-0.136-0.913-0.204-1.409-0.204
			c-0.458,0-0.91,0.075-1.358,0.227c-0.448,0.15-0.85,0.377-1.205,0.678c-0.355,0.302-0.643,0.678-0.862,1.13
			c-0.219,0.452-0.329,0.985-0.329,1.598c0,0.61,0.107,1.14,0.322,1.588c0.214,0.448,0.497,0.823,0.848,1.125
			c0.351,0.301,0.753,0.524,1.206,0.671c0.453,0.146,0.919,0.219,1.396,0.219c0.858,0,1.516-0.161,1.974-0.481V79.75H46.8v-1.152
			h3.471V82.39z"/>
		<path fill="#56555C" d="M55.55,78.933v4.288h-1.385v-4.288l-3.559-5.017h1.546l1.867,2.625c0.136,0.194,0.282,0.411,0.438,0.648
			c0.156,0.239,0.301,0.46,0.438,0.664h0.029c0.136-0.204,0.287-0.428,0.452-0.671c0.165-0.243,0.311-0.457,0.438-0.642l1.867-2.625
			h1.444L55.55,78.933z"/>
		<path fill="#56555C" d="M73.067,78.554c0,0.758-0.141,1.437-0.423,2.034c-0.282,0.599-0.654,1.104-1.116,1.517
			c-0.462,0.414-0.987,0.732-1.575,0.956s-1.193,0.335-1.815,0.335c-0.623,0-1.228-0.111-1.816-0.335
			c-0.588-0.224-1.113-0.542-1.575-0.956c-0.462-0.413-0.834-0.918-1.116-1.517c-0.282-0.598-0.423-1.276-0.423-2.034
			c0-0.749,0.141-1.422,0.423-2.021c0.282-0.598,0.654-1.103,1.116-1.517c0.462-0.413,0.987-0.731,1.575-0.955
			c0.588-0.224,1.193-0.336,1.816-0.336c0.622,0,1.227,0.112,1.815,0.336s1.113,0.542,1.575,0.955
			c0.462,0.414,0.834,0.919,1.116,1.517C72.926,77.132,73.067,77.805,73.067,78.554z M71.637,78.554
			c0-0.573-0.102-1.084-0.306-1.531s-0.474-0.824-0.81-1.131c-0.335-0.306-0.709-0.539-1.123-0.7c-0.413-0.16-0.833-0.24-1.261-0.24
			c-0.428,0-0.851,0.08-1.269,0.24c-0.418,0.161-0.792,0.395-1.123,0.7c-0.331,0.307-0.598,0.684-0.802,1.131
			s-0.306,0.958-0.306,1.531s0.102,1.087,0.306,1.538c0.204,0.452,0.472,0.832,0.802,1.138c0.331,0.307,0.705,0.54,1.123,0.7
			c0.418,0.161,0.841,0.241,1.269,0.241c0.428,0,0.848-0.08,1.261-0.241c0.414-0.16,0.788-0.394,1.123-0.7
			c0.335-0.306,0.605-0.686,0.81-1.138C71.535,79.641,71.637,79.127,71.637,78.554z"/>
		<path fill="#56555C" d="M76.027,75.126v2.815h3.15v1.21h-3.15v4.069h-1.429v-9.305h5.163v1.21H76.027z"/>
		<path fill="#56555C" d="M88.395,78.933v4.288h-1.385v-4.288l-3.559-5.017h1.546l1.867,2.625c0.136,0.194,0.282,0.411,0.438,0.648
			c0.156,0.239,0.301,0.46,0.438,0.664h0.029c0.136-0.204,0.287-0.428,0.452-0.671c0.165-0.243,0.311-0.457,0.438-0.642l1.867-2.625
			h1.444L88.395,78.933z"/>
		<path fill="#56555C" d="M101.74,78.554c0,0.758-0.141,1.437-0.424,2.034c-0.281,0.599-0.653,1.104-1.115,1.517
			c-0.462,0.414-0.987,0.732-1.575,0.956s-1.193,0.335-1.815,0.335c-0.623,0-1.228-0.111-1.816-0.335
			c-0.588-0.224-1.113-0.542-1.575-0.956c-0.462-0.413-0.834-0.918-1.116-1.517c-0.282-0.598-0.423-1.276-0.423-2.034
			c0-0.749,0.141-1.422,0.423-2.021c0.282-0.598,0.654-1.103,1.116-1.517c0.462-0.413,0.987-0.731,1.575-0.955
			c0.588-0.224,1.193-0.336,1.816-0.336c0.622,0,1.227,0.112,1.815,0.336s1.113,0.542,1.575,0.955
			c0.462,0.414,0.834,0.919,1.115,1.517C101.6,77.132,101.74,77.805,101.74,78.554z M100.311,78.554
			c0-0.573-0.102-1.084-0.306-1.531s-0.474-0.824-0.81-1.131c-0.335-0.306-0.709-0.539-1.123-0.7c-0.413-0.16-0.833-0.24-1.261-0.24
			c-0.428,0-0.851,0.08-1.269,0.24c-0.418,0.161-0.792,0.395-1.123,0.7c-0.331,0.307-0.598,0.684-0.802,1.131
			s-0.306,0.958-0.306,1.531s0.102,1.087,0.306,1.538c0.204,0.452,0.472,0.832,0.802,1.138c0.331,0.307,0.705,0.54,1.123,0.7
			c0.418,0.161,0.841,0.241,1.269,0.241c0.428,0,0.848-0.08,1.261-0.241c0.414-0.16,0.788-0.394,1.123-0.7
			c0.335-0.306,0.605-0.686,0.81-1.138C100.208,79.641,100.311,79.127,100.311,78.554z"/>
		<path fill="#56555C" d="M110.855,79.94c0,0.544-0.095,1.03-0.284,1.458c-0.19,0.428-0.455,0.79-0.795,1.087
			c-0.341,0.297-0.742,0.522-1.203,0.678c-0.462,0.155-0.966,0.233-1.51,0.233c-0.545,0-1.048-0.078-1.51-0.233
			s-0.863-0.381-1.203-0.678c-0.341-0.297-0.605-0.659-0.795-1.087s-0.284-0.914-0.284-1.458v-6.023h1.429v5.877
			c0,0.69,0.196,1.255,0.589,1.692s0.991,0.656,1.796,0.656s1.406-0.219,1.804-0.656c0.396-0.438,0.596-1.002,0.596-1.692v-5.877
			h1.371V79.94z"/>
		<path fill="#56555C" d="M118.381,83.221l-2.932-4.084h-1.313v4.084h-1.4v-9.305h2.946c0.33,0,0.661,0.053,0.991,0.16
			c0.331,0.107,0.63,0.268,0.897,0.481c0.267,0.214,0.485,0.486,0.656,0.816c0.17,0.331,0.255,0.715,0.255,1.152
			c0,0.622-0.158,1.13-0.474,1.524c-0.316,0.394-0.703,0.683-1.16,0.867l3.18,4.303H118.381z M117.054,76.527
			c0-0.243-0.044-0.452-0.132-0.627s-0.207-0.321-0.357-0.438c-0.15-0.117-0.323-0.204-0.518-0.263s-0.394-0.088-0.598-0.088h-1.299
			v2.83h1.299c0.204,0,0.403-0.027,0.598-0.081c0.194-0.053,0.367-0.138,0.518-0.255c0.15-0.116,0.27-0.265,0.357-0.444
			C117.01,76.981,117.054,76.77,117.054,76.527z"/>
		<path fill="#56555C" d="M132.338,82.39c-0.447,0.359-0.95,0.617-1.509,0.772c-0.56,0.155-1.189,0.233-1.889,0.233
			c-0.623,0-1.24-0.104-1.853-0.313s-1.159-0.515-1.641-0.919c-0.481-0.403-0.871-0.906-1.167-1.51
			c-0.297-0.603-0.445-1.303-0.445-2.1c0-0.807,0.153-1.512,0.46-2.115c0.307-0.603,0.701-1.105,1.183-1.509s1.02-0.708,1.613-0.912
			s1.183-0.306,1.767-0.306c0.643,0,1.22,0.067,1.73,0.204c0.511,0.136,0.937,0.315,1.277,0.539l-0.263,1.226
			c-0.341-0.224-0.732-0.403-1.176-0.54c-0.443-0.136-0.913-0.204-1.409-0.204c-0.457,0-0.91,0.075-1.358,0.227
			c-0.447,0.15-0.849,0.377-1.204,0.678c-0.355,0.302-0.643,0.678-0.862,1.13c-0.219,0.452-0.328,0.985-0.328,1.598
			c0,0.61,0.107,1.14,0.321,1.588c0.215,0.448,0.497,0.823,0.849,1.125c0.351,0.301,0.753,0.524,1.206,0.671
			c0.453,0.146,0.919,0.219,1.396,0.219c0.857,0,1.516-0.161,1.974-0.481V79.75h-2.144v-1.152h3.471V82.39z"/>
		<path fill="#56555C" d="M139.763,83.221l-2.932-4.084h-1.313v4.084h-1.4v-9.305h2.946c0.33,0,0.661,0.053,0.991,0.16
			c0.331,0.107,0.63,0.268,0.897,0.481c0.267,0.214,0.485,0.486,0.656,0.816c0.17,0.331,0.255,0.715,0.255,1.152
			c0,0.622-0.158,1.13-0.474,1.524c-0.316,0.394-0.703,0.683-1.16,0.867l3.18,4.303H139.763z M138.436,76.527
			c0-0.243-0.044-0.452-0.132-0.627s-0.207-0.321-0.357-0.438c-0.15-0.117-0.323-0.204-0.518-0.263s-0.394-0.088-0.598-0.088h-1.299
			v2.83h1.299c0.204,0,0.403-0.027,0.598-0.081c0.194-0.053,0.367-0.138,0.518-0.255c0.15-0.116,0.27-0.265,0.357-0.444
			C138.392,76.981,138.436,76.77,138.436,76.527z"/>
		<path fill="#56555C" d="M151.269,78.554c0,0.758-0.141,1.437-0.423,2.034c-0.282,0.599-0.654,1.104-1.115,1.517
			c-0.462,0.414-0.987,0.732-1.575,0.956c-0.589,0.224-1.194,0.335-1.816,0.335s-1.228-0.111-1.815-0.335
			c-0.589-0.224-1.113-0.542-1.575-0.956c-0.462-0.413-0.834-0.918-1.116-1.517c-0.281-0.598-0.423-1.276-0.423-2.034
			c0-0.749,0.142-1.422,0.423-2.021c0.282-0.598,0.654-1.103,1.116-1.517c0.462-0.413,0.986-0.731,1.575-0.955
			c0.588-0.224,1.193-0.336,1.815-0.336s1.228,0.112,1.816,0.336c0.588,0.224,1.113,0.542,1.575,0.955
			c0.461,0.414,0.833,0.919,1.115,1.517C151.128,77.132,151.269,77.805,151.269,78.554z M149.84,78.554
			c0-0.573-0.103-1.084-0.307-1.531s-0.474-0.824-0.81-1.131c-0.335-0.306-0.71-0.539-1.123-0.7c-0.413-0.16-0.834-0.24-1.262-0.24
			s-0.851,0.08-1.269,0.24c-0.418,0.161-0.793,0.395-1.123,0.7c-0.331,0.307-0.598,0.684-0.802,1.131s-0.307,0.958-0.307,1.531
			s0.103,1.087,0.307,1.538c0.204,0.452,0.471,0.832,0.802,1.138c0.33,0.307,0.705,0.54,1.123,0.7
			c0.418,0.161,0.841,0.241,1.269,0.241s0.849-0.08,1.262-0.241c0.413-0.16,0.788-0.394,1.123-0.7
			c0.336-0.306,0.605-0.686,0.81-1.138C149.737,79.641,149.84,79.127,149.84,78.554z"/>
		<path fill="#56555C" d="M161.245,83.352h-0.481l-1.735-4.973c-0.126-0.36-0.255-0.739-0.387-1.138
			c-0.131-0.398-0.27-0.851-0.415-1.356h-0.029c-0.146,0.506-0.284,0.96-0.416,1.363c-0.131,0.403-0.26,0.78-0.387,1.131
			l-1.735,4.973h-0.481l-3.296-9.436h1.415l1.502,4.287c0.106,0.312,0.224,0.649,0.35,1.014c0.127,0.365,0.238,0.737,0.336,1.116
			h0.029c0.106-0.379,0.219-0.751,0.335-1.116c0.117-0.364,0.229-0.702,0.336-1.014l1.487-4.287h1.211l1.502,4.287
			c0.106,0.302,0.216,0.638,0.328,1.007c0.111,0.369,0.221,0.744,0.328,1.123h0.029c0.097-0.369,0.209-0.744,0.335-1.123
			c0.127-0.379,0.243-0.715,0.351-1.007l1.502-4.287h1.298L161.245,83.352z"/>
		<path fill="#56555C" d="M169.777,75.126v8.095h-1.43v-8.095h-2.989v-1.21h7.409v1.21H169.777z"/>
		<path fill="#56555C" d="M179.972,83.221v-4.069h-4.77v4.069h-1.429v-9.305h1.429v4.025h4.77v-4.025h1.43v9.305H179.972z"/>
	</g>
</g>
</svg>
