<?xml version="1.0" encoding="UTF-8"?>
<svg width="276px" height="55px" viewBox="0 0 276 55" version="1.1" xmlns="http://www.w3.org/2000/svg" xmlns:xlink="http://www.w3.org/1999/xlink">
    <!-- Generator: Sketch 43.1 (39012) - http://www.bohemiancoding.com/sketch -->
    <title>Page 1</title>
    <desc>Created with Sketch.</desc>
    <defs></defs>
    <g id="komponenty-osobno" stroke="none" stroke-width="1" fill="none" fill-rule="evenodd">
        <g id="menu" transform="translate(-269.000000, -174.000000)">
            <g id="menu-copy-3" transform="translate(250.181766, 131.093647)">
                <g id="Page-1" transform="translate(19.699568, 43.270228)">
                    <polygon id="Fill-1" fill="#D51130" points="0 54.0759159 274.935048 54.0759159 274.935048 0 0 0"></polygon>
                    <g id="Group-25" transform="translate(15.182870, 5.608259)">
                        <path d="M180.532641,25.9436271 L190.093597,25.9436271 L190.093597,29.3919605 C190.093597,30.6169144 189.578594,30.6169144 188.38097,30.6169144 L176.996854,30.6169144 C173.768976,30.6169144 172.969142,30.4098201 172.969142,27.945944 L172.969142,16.7731738 C172.969142,14.3080831 173.768976,14.103418 176.996854,14.103418 L186.05799,14.103418 C189.281617,14.103418 190.079629,14.3092977 190.079629,16.7731738 L190.079629,17.0701508 L199.39523,17.0701508 C199.39523,12.4241927 197.752444,8.21367924 189.166835,8.21367924 L173.540625,8.21367924 C163.472561,8.21367924 163.267288,13.8647433 163.267288,19.5668219 L163.267288,25.1535106 C163.267288,30.8555891 163.472561,36.5054386 173.540625,36.5054386 L189.184447,36.5054386 C199.253726,36.5054386 199.459606,31.5029867 199.459606,25.8027301 L199.459606,20.8276074 L180.532641,20.8276074 L180.532641,25.9436271 Z" id="Fill-2" fill="#FEFEFE"></path>
                        <polygon id="Fill-4" fill="#FEFEFE" points="56.8933707 8.42162382 56.8933707 36.2967652 66.5879366 36.2967652 66.5879366 26.1588595 83.6182579 26.1588595 83.6182579 20.4561736 66.5879366 20.4561736 66.5879366 14.3107553 86.265543 14.3107553 86.265543 8.42162382"></polygon>
                        <polygon id="Fill-6" fill="#FEFEFE" points="90.6965724 36.2970081 117.52531 36.2970081 117.52531 30.408484 100.390531 30.408484 100.390531 8.42186674 90.6965724 8.42186674"></polygon>
                        <path d="M215.571242,25.2995091 L221.033431,13.8825984 L226.815068,25.2995091 L215.571242,25.2995091 Z M232.385967,36.2967652 L243.001222,36.2967652 L227.619153,8.42162382 L215.214141,8.42162382 L200.82989,36.2967652 L210.296713,36.2967652 L212.931852,30.7926713 L229.597784,30.7926713 L232.385967,36.2967652 Z" id="Fill-8" fill="#FEFEFE"></path>
                        <path d="M134.517553,25.2995091 L139.979742,13.8825984 L145.760772,25.2995091 L134.517553,25.2995091 Z M151.333492,36.2967652 L161.94814,36.2967652 L146.565464,8.42162382 L134.161059,8.42162382 L119.776201,36.2967652 L129.243024,36.2967652 L131.87877,30.7926713 L148.544703,30.7926713 L151.333492,36.2967652 Z" id="Fill-10" fill="#FEFEFE"></path>
                        <polygon id="Fill-12" fill="#FFED00" points="0.208187509 36.2970081 41.1381675 36.2970081 20.6637642 0.865048855"></polygon>
                        <path d="M20.7830408,8.4385679 L20.7824335,8.4385679 C20.7551043,8.20414439 20.7162361,8.05838884 20.6737241,8.05838884 C20.6306048,8.05838884 20.5923439,8.20414439 20.5644075,8.4385679 C19.7038424,16.1885119 14.052171,21.4490726 14.052171,26.0968526 C14.052171,30.7513132 17.3547488,33.3645887 20.0366509,33.7332288 C19.1554371,32.4475434 18.6513659,30.602521 18.6513659,28.9785613 C18.6513659,26.9981078 19.4026143,24.6848458 20.6737241,23.2096781 C21.9442266,24.6848458 22.695475,26.9981078 22.695475,28.9785613 C22.695475,30.602521 22.1907964,32.4475434 21.31019,33.7332288 C23.9920921,33.3645887 27.2934553,30.7513132 27.2934553,26.0968526 C27.2934553,21.4490726 21.6429985,16.1885119 20.7830408,8.4385679" id="Fill-14" fill="#D51130"></path>
                    </g>
                </g>
            </g>
        </g>
    </g>
</svg>