<svg xmlns="http://www.w3.org/2000/svg" xmlns:xlink="http://www.w3.org/1999/xlink" id="Layer_1" x="0px" y="0px" width="119.15px" height="72.54px" viewBox="0 0 119.15 72.54" xml:space="preserve"><g>	<polygon fill="none" points="8.87,22.22 59.62,17.42 59.57,17.42  "></polygon>	<path fill="none" d="M111.07,15.22v7h0.1v-7c0-2-1.5-3.7-3.5-3.7C109.47,11.52,111.07,13.22,111.07,15.22z"></path>	<rect x="111.07" y="50.52" fill="none" width="0.1" height="6.9"></rect>	<path fill="#0068A6" d="M111.07,57.42v-6.9h-0.4h-0.1h-0.1l-50.8,4.8l-50.8-4.8h-0.2h-0.5v6.9c0,2,1.5,3.7,3.5,3.7h0.2l47.7,7.8  l47.8-7.8h0.2C109.47,61.12,111.07,59.42,111.07,57.42z"></path>	<path fill="#F04B2D" d="M8.87,22.22l50.7-4.8h0.05h0.05l50.8,4.8h0.1h0.1h0.4v-7c0-2-1.6-3.7-3.4-3.7h-0.2l-47.8-7.8l-47.8,7.8  h-0.2c-1.9,0-3.5,1.7-3.5,3.7v7h0.5C8.67,22.22,8.87,22.22,8.87,22.22z"></path>	<polygon fill="#FFFFFF" points="107.77,33.72 107.87,33.52 107.67,33.22 107.37,33.22 107.27,33.22 107.27,33.82 107.47,33.82  "></polygon>	<path fill="#FFFFFF" d="M36.17,35.52c0.1-0.4,0.2-0.7,0.3-1.2c0-0.6-0.3-1.2-0.7-1.6c-0.5-0.5-1-0.7-1.6-0.7c-1.4,0-2.4,0.3-3,0.7  c-0.7,0.5-1.1,1-1.3,1.6c-0.3,0.6-0.4,1.2-0.5,1.7h6.3C35.87,36.02,36.07,35.82,36.17,35.52z"></path>	<path fill="#FFFFFF" d="M113.77,57.42v-5c1.9-1.2,3.3-3.3,3.3-5.8v-20.5c0.1-2.5-1.2-4.6-3.2-5.8v-5.1c0-3.6-2.8-6.5-6.3-6.6  l-47.5-7.7h-0.4h-0.4l-47.6,7.8c-3.5,0-6.3,2.9-6.3,6.6v5.1c-2,1.1-3.3,3.2-3.3,5.7v20.4c0,2.5,1.3,4.7,3.3,5.8v5  c0,3.6,2.7,6.6,6.2,6.6l47.6,7.7h0.4h0.4l47.5-7.7C110.97,63.92,113.77,61.02,113.77,57.42z M8.17,15.22c0-2,1.6-3.7,3.5-3.7h0.2  l47.8-7.8l47.8,7.8h0.2c2,0,3.5,1.7,3.5,3.7v7h-0.1h-0.4h-0.1h-0.1l-50.8-4.8h-0.05l-50.75,4.8h-0.2h-0.5  C8.17,22.22,8.17,15.22,8.17,15.22z M104.57,47.12l0.7,0.4v0.5h-4.5c-0.4,0-0.7-0.1-1-0.4c-0.3-0.3-0.3-0.8-0.2-1.4l1.4-6.3  c0.1-0.7,0-1.2-0.4-1.4s-0.9-0.3-1.5-0.3h-2.5l-1.8,7.8c0,0.4,0,0.8,0.2,1.1l0.6,0.5v0.5h-4.4c-0.4,0-0.7-0.1-1-0.4  c-0.3-0.3-0.3-0.8-0.2-1.4l4.7-20.5c0-0.4,0-0.7-0.2-1l-0.6-0.4v-0.5h4.4c0.4,0,0.8,0.2,1,0.5s0.3,0.7,0.2,1.3l-2.2,9.5h0.1  l4.2-4.6c0.8-0.9,0.7-1.4-0.1-1.4v-0.5h4.3c0.4,0,0.7,0,1,0.1l0.5,0.4c0,0.2-0.2,0.6-0.7,1.1l-4.4,4.9h1.4c0.7,0.1,1.3,0.4,1.9,1  c0.5,0.7,0.7,1.5,0.5,2.5l-1.6,7.4C104.37,46.52,104.37,46.82,104.57,47.12z M88.57,47.12l0.6,0.5v0.5h-4.4c-0.4,0-0.7-0.1-1-0.4  s-0.3-0.8-0.2-1.4l4.7-20.5c0-0.4,0-0.7-0.2-1l-0.6-0.4v-0.5h4.4c0.4,0,0.8,0.2,1,0.5s0.3,0.7,0.2,1.3l-4.7,20.3  C88.27,46.52,88.37,46.82,88.57,47.12z M82.17,47.32l0.6,0.4v0.5h-4.6c-0.5,0-0.9-0.1-1.1-0.4c-0.2-0.3-0.2-0.8-0.1-1.4l3.6-15.6  c0-0.4,0-0.7-0.2-1l-0.6-0.4v-0.5h4.4c0.4,0,0.8,0.1,1,0.4c0.3,0.3,0.3,0.7,0.2,1.3l-3.5,15.6C81.77,46.62,81.87,46.92,82.17,47.32  z M75.67,47.72l0.6,0.4v0.5h-4.4c-0.4,0-0.8-0.1-1-0.4c-0.3-0.3-0.3-0.8-0.2-1.4l2.8-12.1c0.1-0.5,0-0.8-0.2-1.1s-0.5-0.4-0.8-0.4  h-1.7c-0.5,0-0.9,0.1-1.2,0.4c-0.3,0.3-0.5,0.6-0.6,1l-2.8,12c-0.1,0.4,0,0.7,0.2,1l0.6,0.4v0.5h-4.5c-0.4,0-0.7-0.1-1-0.4  c-0.3-0.3-0.3-0.8-0.2-1.4l2.9-12.5c0.1-0.3-0.1-0.6-0.4-0.8c-0.3-0.2-0.7-0.3-1.1-0.3h-1.3c-0.5,0-0.9,0.1-1.2,0.4  c-0.3,0.3-0.5,0.7-0.6,1.1l-2.8,11.9c0,0.4,0,0.7,0.2,1l0.6,0.4v0.5h-4.4c-0.5,0-0.8-0.1-1.1-0.4s-0.3-0.8-0.2-1.4l3.5-15.6  c0-0.4,0-0.7-0.2-1l-0.4-0.3c0.1,0.2,0,0.6-0.2,1l-8.5,17.5h-4.9l-0.6-17.4c-0.1-0.4-0.2-0.7-0.3-1l-0.6-0.4v-0.5h4.3  c0.8-0.1,1.2,0.5,1.2,1.7l0.4,9.9l4.7-9.7c0.1-0.4,0.1-0.7-0.1-1l-0.6-0.4v-0.5h3.8c0.6,0,1,0.1,1.2,0.3v-0.3h4.4  c0.4,0,0.8,0.1,1,0.4c0.3,0.3,0.3,0.8,0.2,1.4l-0.3,1.3c0.5-1,1-1.8,1.5-2.3c0.4-0.5,1.2-0.8,2.1-0.8h3.2c0.8,0,1.4,0.3,2,1  c0.5,0.6,0.7,1.3,0.6,2.1c0.4-1,0.9-1.7,1.4-2.3s1.2-0.9,2.2-0.9h2.6c0.9,0.1,1.7,0.3,2.4,0.8c0.7,0.4,1,1,0.9,1.7l-3.4,14.9  C75.27,46.62,75.37,46.92,75.67,47.72z M28.87,43.12c0.7,0.6,1.9,0.9,3.5,0.9c1.3,0,2.4-0.2,3.2-0.5c0.9-0.3,1.4-0.8,1.5-1.4h0.5  l-1,4.7c-0.2,0.5-1,0.9-2.4,1.2s-3.2,0.4-5.3,0.4c-1.1,0-2-0.3-3-0.9c-0.9-0.6-1.6-1.5-2.1-2.6l-0.3,1.3c-0.1,0.5-0.3,0.9-0.7,1.3  c-0.3,0.4-0.8,0.6-1.4,0.6h-10.5l-0.7-0.4l-0.2-0.8l5-20.4c0.1-0.5,0-0.8-0.2-1.1s-0.5-0.4-0.8-0.4v-0.5h4.7  c1.2-0.1,1.7,0.5,1.4,1.7l-4.4,17.7h6.4c0.5,0,0.9-0.2,1.3-0.4l0.1-0.1c-0.1-0.9-0.1-1.9,0.2-3.1c0.5-2.3,1.1-4.3,1.8-6.1  c0.7-1.8,1.7-3.2,3-4.2c1.3-1.1,3.1-1.6,5.3-1.6c2.3,0.1,4,0.5,4.9,1.2c1,0.9,1.5,2.1,1.5,3.5c0,1.6-0.2,2.9-0.7,4  c-0.4,1.1-1.1,1.7-2.1,1.7h-8.8c0,0.1-0.1,0.3-0.2,0.8s-0.2,1.1-0.4,1.9C27.87,42.02,28.17,42.62,28.87,43.12z M80.97,26.72  l0.5-1.9c0.2-0.6,0.6-0.9,1.3-0.9h2.9c0.3,0,0.6,0.1,0.8,0.3l0.3,0.7l-0.5,1.9c-0.1,0.3-0.3,0.6-0.6,0.8c-0.3,0.2-0.7,0.3-1.1,0.3  h-2.9l-0.6-0.4L80.97,26.72z M105.57,33.92c0-0.6,0.2-1.1,0.6-1.5c0.4-0.3,0.8-0.5,1.3-0.5c0.6,0,1,0.2,1.4,0.6  c0.4,0.3,0.6,0.8,0.6,1.4c0,0.5-0.2,1-0.6,1.4c-0.3,0.4-0.8,0.6-1.3,0.6c-0.6,0-1-0.2-1.4-0.6  C105.77,34.92,105.57,34.52,105.57,33.92z M59.57,68.92l-47.7-7.8h-0.2c-2,0-3.5-1.7-3.5-3.7v-6.9h0.5h0.2l50.8,4.8l50.8-4.8h0.1  h0.1h0.4h0.1v6.9h-0.1c0,2-1.6,3.7-3.5,3.7h-0.2L59.57,68.92z"></path>	<path fill="#0068A6" d="M28.57,38.82h8.8c1,0,1.7-0.6,2.1-1.7c0.5-1.1,0.7-2.4,0.7-4c0-1.4-0.5-2.6-1.5-3.5  c-0.9-0.7-2.6-1.1-4.9-1.2c-2.2,0-4,0.5-5.3,1.6c-1.3,1-2.3,2.4-3,4.2s-1.3,3.8-1.8,6.1c-0.3,1.2-0.3,2.2-0.2,3.1l-0.1,0.1  c-0.4,0.2-0.8,0.4-1.3,0.4h-6.4l4.4-17.7c0.3-1.2-0.2-1.8-1.4-1.7h-4.7v0.5c0.3,0,0.6,0.1,0.8,0.4s0.3,0.6,0.2,1.1l-5,20.4l0.2,0.8  l0.7,0.4h10.5c0.6,0,1.1-0.2,1.4-0.6c0.4-0.4,0.6-0.8,0.7-1.3l0.3-1.3c0.5,1.1,1.2,2,2.1,2.6c1,0.6,1.9,0.9,3,0.9  c2.1,0,3.9-0.1,5.3-0.4c1.4-0.3,2.2-0.7,2.4-1.2l1-4.7h-0.5c-0.1,0.6-0.6,1.1-1.5,1.4c-0.8,0.3-1.9,0.5-3.2,0.5  c-1.6,0-2.8-0.3-3.5-0.9c-0.7-0.5-1-1.1-0.9-1.6c0.2-0.8,0.3-1.4,0.4-1.9C28.47,39.12,28.57,38.92,28.57,38.82z M29.87,34.32  c0.2-0.6,0.6-1.1,1.3-1.6c0.6-0.4,1.6-0.7,3-0.7c0.6,0,1.1,0.2,1.6,0.7c0.4,0.4,0.7,1,0.7,1.6c-0.1,0.5-0.2,0.8-0.3,1.2  c-0.1,0.3-0.3,0.5-0.5,0.5h-6.3C29.47,35.52,29.57,34.92,29.87,34.32z"></path>	<path fill="#0068A6" d="M78.77,31.32c0.1-0.7-0.2-1.3-0.9-1.7c-0.7-0.5-1.5-0.7-2.4-0.8h-2.6c-1,0-1.7,0.3-2.2,0.9s-1,1.3-1.4,2.3  c0.1-0.8-0.1-1.5-0.6-2.1c-0.6-0.7-1.2-1-2-1h-3.2c-0.9,0-1.7,0.3-2.1,0.8c-0.5,0.5-1,1.3-1.5,2.3l0.3-1.3c0.1-0.6,0.1-1.1-0.2-1.4  c-0.2-0.3-0.6-0.4-1-0.4h-4.4v0.3c-0.2-0.2-0.6-0.3-1.2-0.3h-3.8v0.5l0.6,0.4c0.2,0.3,0.2,0.6,0.1,1l-4.7,9.7l-0.4-9.9  c0-1.2-0.4-1.8-1.2-1.7h-4.3v0.5l0.6,0.4c0.1,0.3,0.2,0.6,0.3,1l0.6,17.4h4.9l8.5-17.5c0.2-0.4,0.3-0.8,0.2-1l0.4,0.3  c0.2,0.3,0.2,0.6,0.2,1l-3.5,15.6c-0.1,0.6-0.1,1.1,0.2,1.4s0.6,0.4,1.1,0.4h4.4v-0.5l-0.6-0.4c-0.2-0.3-0.2-0.6-0.2-1l2.8-11.9  c0.1-0.4,0.3-0.8,0.6-1.1s0.7-0.4,1.2-0.4h1.3c0.4,0,0.8,0.1,1.1,0.3c0.3,0.2,0.5,0.5,0.4,0.8l-2.9,12.5c-0.1,0.6-0.1,1.1,0.2,1.4  c0.3,0.3,0.6,0.4,1,0.4h4.5v-0.5l-0.6-0.4c-0.2-0.3-0.3-0.6-0.2-1l2.8-12c0.1-0.4,0.3-0.7,0.6-1c0.3-0.3,0.7-0.4,1.2-0.4h1.7  c0.3,0,0.6,0.1,0.8,0.4c0.2,0.3,0.3,0.6,0.2,1.1l-2.8,12.1c-0.1,0.6-0.1,1.1,0.2,1.4c0.2,0.3,0.6,0.4,1,0.4h4.4v-0.5l-0.6-0.4  c-0.3-0.8-0.4-1.1-0.3-1.5L78.77,31.32z"></path>	<path fill="#0068A6" d="M93.07,25.72c0.1-0.6,0-1-0.2-1.3s-0.6-0.5-1-0.5h-4.4v0.5l0.6,0.4c0.2,0.3,0.2,0.6,0.2,1l-4.7,20.5  c-0.1,0.6-0.1,1.1,0.2,1.4s0.6,0.4,1,0.4h4.4v-0.5l-0.6-0.5c-0.2-0.3-0.3-0.6-0.2-1.1L93.07,25.72z"></path>	<path fill="#0068A6" d="M105.47,36.22c-0.6-0.6-1.2-0.9-1.9-1h-1.4l4.4-4.9c0.5-0.5,0.7-0.9,0.7-1.1l-0.5-0.4  c-0.3-0.1-0.6-0.1-1-0.1h-4.3v0.5c0.8,0,0.9,0.5,0.1,1.4l-4.2,4.6h-0.1l2.2-9.5c0.1-0.6,0-1-0.2-1.3s-0.6-0.5-1-0.5h-4.4v0.5  l0.6,0.4c0.2,0.3,0.2,0.6,0.2,1l-4.7,20.5c-0.1,0.6-0.1,1.1,0.2,1.4c0.3,0.3,0.6,0.4,1,0.4h4.4v-0.5l-0.6-0.5  c-0.2-0.3-0.2-0.7-0.2-1.1l1.8-7.8h2.5c0.6,0,1.1,0.1,1.5,0.3s0.5,0.7,0.4,1.4l-1.4,6.3c-0.1,0.6-0.1,1.1,0.2,1.4  c0.3,0.3,0.6,0.4,1,0.4h4.5v-0.5l-0.7-0.4c-0.2-0.3-0.2-0.6-0.2-1l1.6-7.4C106.17,37.72,105.97,36.92,105.47,36.22z"></path>	<path fill="#0068A6" d="M85.37,30.62c0.1-0.6,0.1-1-0.2-1.3c-0.2-0.3-0.6-0.4-1-0.4h-4.4v0.5l0.6,0.4c0.2,0.3,0.2,0.6,0.2,1  l-3.6,15.6c-0.1,0.6-0.1,1.1,0.1,1.4c0.2,0.3,0.6,0.4,1.1,0.4h4.6v-0.5l-0.6-0.4c-0.3-0.4-0.4-0.7-0.3-1.1L85.37,30.62z"></path>	<path fill="#0068A6" d="M84.57,27.92c0.4,0,0.8-0.1,1.1-0.3c0.3-0.2,0.5-0.5,0.6-0.8l0.5-1.9l-0.3-0.7c-0.2-0.2-0.5-0.3-0.8-0.3  h-2.9c-0.7,0-1.1,0.3-1.3,0.9l-0.5,1.9l0.1,0.8l0.6,0.4H84.57z"></path></g><path fill-rule="evenodd" fill="#0068A6" d="M107.13,33.19h0.44c0.11,0,0.19,0.01,0.24,0.02c0.12,0.04,0.18,0.12,0.18,0.26 c0,0.2-0.12,0.3-0.41,0.3h-0.44V33.19z M107.47,34.13c0.07,0,0.11,0,0.15,0c0.13,0.02,0.23,0.08,0.27,0.19 c0.03,0.09,0.06,0.21,0.06,0.38c0.01,0.13,0.03,0.23,0.07,0.28h0.45c-0.02-0.04-0.04-0.08-0.04-0.12c-0.01-0.04-0.02-0.11-0.02-0.23 l-0.01-0.21c-0.01-0.13-0.04-0.22-0.09-0.28c-0.05-0.08-0.15-0.13-0.3-0.17c0.16-0.05,0.25-0.11,0.33-0.17 c0.1-0.1,0.13-0.22,0.13-0.37c0-0.11-0.02-0.21-0.07-0.31c-0.08-0.12-0.17-0.2-0.31-0.26c-0.11-0.03-0.26-0.05-0.5-0.05h-0.93v2.18 h0.48v-0.85H107.47z M106.67,32.13c-0.34,0.17-0.61,0.42-0.79,0.73c-0.19,0.33-0.3,0.67-0.3,1.05c0,0.27,0.05,0.52,0.16,0.78 c0.1,0.25,0.25,0.46,0.43,0.66c0.18,0.17,0.4,0.32,0.64,0.42c0.25,0.11,0.49,0.16,0.76,0.16c0.27,0,0.51-0.05,0.76-0.16 c0.25-0.1,0.44-0.25,0.65-0.43c0.18-0.19,0.33-0.4,0.42-0.65c0.1-0.25,0.15-0.5,0.15-0.77c0-0.26-0.05-0.51-0.15-0.77 c-0.1-0.24-0.24-0.47-0.44-0.64c-0.19-0.19-0.38-0.34-0.63-0.44c-0.24-0.1-0.48-0.14-0.75-0.14C107.27,31.92,106.96,32,106.67,32.13  M108.71,32.75c0.15,0.14,0.26,0.32,0.34,0.53c0.08,0.21,0.12,0.42,0.12,0.64c0,0.46-0.16,0.85-0.47,1.17 c-0.14,0.15-0.32,0.28-0.52,0.36c-0.21,0.09-0.4,0.12-0.62,0.12c-0.2,0-0.42-0.04-0.61-0.12c-0.2-0.08-0.37-0.2-0.52-0.36 c-0.32-0.33-0.48-0.72-0.48-1.19c0-0.22,0.03-0.43,0.12-0.64c0.09-0.21,0.21-0.39,0.36-0.54c0.14-0.16,0.32-0.28,0.52-0.35 c0.19-0.09,0.39-0.13,0.59-0.13C108,32.25,108.38,32.41,108.71,32.75"></path></svg>