<?xml version="1.0" encoding="UTF-8"?>
<svg xmlns="http://www.w3.org/2000/svg" xmlns:xlink="http://www.w3.org/1999/xlink" width="181px" height="183px" viewBox="0 0 181 183">
  <!-- Generator: sketchtool 54.1 (76490) - https://sketchapp.com -->
  <title>ABADEE2C-2DC3-41FF-88F4-C50184A5D14E</title>
  <desc>Created with sketchtool.</desc>
  <g id="Mainpage" stroke="none" stroke-width="1" fill="none" fill-rule="evenodd">
    <g id="Mainpage-dark" transform="translate(-20.000000, -20.000000)">
      <g id="Logo" transform="translate(20.000000, 20.000000)">
        <g>
          <polygon id="blue" fill="#0A3370" points="0 182.202772 180.126166 182.202772 180.126166 120.256872 0 120.256872"></polygon>
          <polygon id="red" fill="#CB2E26" points="0 120.256205 180.126166 120.256205 180.126166 0 0 0"></polygon>
          <path d="M21.4820216,74.9087125 C22.7259336,75.1790243 23.6962248,75.398196 24.5323622,75.5868166 C27.1038664,76.1666254 28.3949315,76.4575261 32.6128094,77.097109 C34.538781,77.389338 36.4906536,77.6769179 38.4611219,77.9664902 C42.3568976,78.5403216 46.3848348,79.1334136 50.3988254,79.7915929 L60.2431969,81.4068222 C66.9907389,82.5139715 73.9235727,83.6523361 81.0383775,84.8119538 L92.5576803,86.6928457 C100.053695,87.9175508 107.763558,89.1781203 115.684615,90.4592787 C119.664071,91.1021824 122.794107,92.7546044 124.988386,95.3707178 C125.722248,96.2454123 126.430872,97.1572995 127.114924,98.0379713 C128.329615,99.600068 129.586145,101.215961 131.006715,102.653197 C135.505519,107.206655 138.755763,110.496224 149.188552,107.781815 C157.604384,105.590098 162.886195,101.478303 164.885885,95.5606666 C165.599158,93.4499765 165.593181,91.8227925 164.866625,90.7242772 C163.905632,89.2711022 161.561923,88.3910945 157.901249,88.1094921 C148.592165,87.3935311 138.638212,86.6629587 128.916704,86.1668336 L128.575342,86.1489013 C119.148043,85.668716 101.600449,84.7740969 93.0803491,82.9098089 C89.3552543,82.0942244 85.5683956,81.2049185 81.906393,80.3448355 C74.6494647,78.6412735 67.1461449,76.8786014 59.7517421,75.6027563 C55.4256113,74.85558 53.1004987,72.6618702 52.8401604,69.0820654 C52.6688154,66.7269655 51.1864813,64.1586714 49.0008356,63.9375072 C46.0501142,63.639965 43.0236823,65.2698056 39.6558884,67.2695816 C37.2304924,68.7101376 34.621797,69.9859827 31.9938419,69.55096 C30.0406411,69.2275157 29.1998548,68.2339372 28.8385691,67.4568738 C28.200342,66.0847259 28.5177952,64.309435 29.7829593,62.1788201 C30.8708012,60.3477399 32.6553136,58.983562 34.243244,57.8485181 C37.9676747,55.1487209 41.6974183,52.4104026 45.4464217,49.6574729 C47.6546478,48.0369304 49.8688511,46.4110747 52.0943445,44.7838907 L58.0429404,40.4177242 C63.1055892,36.6997747 68.2014445,32.9579156 73.3417964,29.2187131 C81.4282208,23.3356126 87.8775692,19.9218469 93.0584329,18.7828181 C100.070962,17.2406461 104.548514,17.7407562 107.151896,20.354213 C109.372741,22.5864438 111.501272,24.8306295 113.754658,27.2069823 L113.852949,27.3105908 C114.313854,27.7954252 114.77808,28.2809238 115.244298,28.7677507 C116.6217,30.2049859 118.04559,31.6920328 119.402404,33.2388539 C119.978867,33.8970332 120.453719,34.5857638 120.912632,35.2512489 C121.042137,35.4385411 121.170977,35.6258333 121.301811,35.811133 C122.413561,37.3898336 121.985863,39.2926427 120.030005,41.4657636 C118.131927,43.5757896 116.294284,44.8708952 114.247442,45.5423577 C111.78087,46.3513006 109.540101,46.2975039 107.486617,46.1175174 C106.201529,46.0059391 104.85999,45.9202629 103.562948,45.8372433 C102.528236,45.7708276 101.49286,45.7044119 100.467447,45.6247131 C98.3780994,45.4619947 96.3930203,45.0568591 94.7280511,44.6822747 C92.2913649,44.1336812 90.8216493,42.4792668 90.3607444,39.7635298 C89.8699537,36.8757763 89.3373229,36.0283123 89.0637021,35.7799176 C88.3710164,35.1536178 87.2904799,35.0407112 85.4488526,35.4040049 C83.0599836,35.874892 80.7587796,36.8206513 78.6096609,38.2153804 C76.4279999,39.6306985 74.7530687,41.2738223 73.6313563,43.0975967 C72.3874443,45.1206182 72.4551853,46.7690552 72.6876302,48.8770887 C72.8450285,50.3096748 74.6932972,51.9806932 76.3237318,53.4551212 C77.1379529,54.1910069 77.9070133,54.8870432 78.532622,55.5950342 C80.035544,57.2992605 82.1248912,58.301473 84.7415561,58.5744414 C86.9238812,58.8002547 89.9098013,58.1819248 93.5857507,57.3484081 C95.3111556,56.9572197 96.4501354,56.5979109 97.5525881,56.250557 C98.8370119,55.8454213 100.165268,55.4263384 102.303097,54.9972932 L102.82975,54.8910281 C103.833912,54.6884603 104.873937,54.4785868 105.906656,54.3012569 C107.800085,53.9950806 110.007647,53.6882402 112.422417,53.9133894 C115.573041,54.2049542 117.544838,54.6233729 119.014553,55.3121035 C121.097923,56.2884139 122.367072,57.8498464 123.486792,59.2273075 L123.699977,59.4889853 C124.560023,60.5423379 125.485818,61.7046122 126.530492,63.042888 C127.127543,63.8073325 127.722602,64.5797468 128.321645,65.356146 C129.281975,66.6027682 130.249609,67.8586886 131.239824,69.1026542 C132.675005,70.9065039 134.986835,71.2565146 138.307476,70.1699541 C143.018137,68.6291105 146.48555,66.3596868 148.333155,63.606093 C150.059224,61.0331497 149.28485,59.979133 148.954114,59.5281705 C147.377474,57.3802876 145.923034,55.1806004 144.515746,53.0533064 C143.818411,51.9986254 143.123733,50.9479295 142.417765,49.9091883 C141.774889,48.9640933 141.135998,48.0196624 140.499099,47.0792164 C139.294371,45.2999405 138.098276,43.5332835 136.897532,41.7885437 C136.033501,40.5067212 135.17744,39.2521291 134.326692,38.0055069 C133.647953,37.0119284 132.973199,36.0236632 132.306414,35.0373904 C131.775112,34.2523571 131.257092,33.4626747 130.741064,32.6769773 C129.673146,31.0478008 128.663671,29.5089496 127.552585,28.02788 C126.276131,26.324318 124.890759,24.663262 123.550549,23.0566668 C122.831962,22.1952555 122.115368,21.3365008 121.414713,20.4711046 C120.823638,19.7418604 120.253816,19.0013257 119.687315,18.2641117 C118.592168,16.8408238 117.558784,15.4965705 116.387927,14.2492841 C114.566223,12.3072898 111.667968,11.3329718 107.740978,11.3329718 C105.923923,11.3329718 103.886378,11.5415171 101.630999,11.9592717 C96.4129442,12.9262839 91.136446,14.9898189 85.9496052,18.0934234 L84.782732,18.7914521 C77.2614807,23.2917783 70.1573019,27.5430456 62.9807331,32.1383462 C57.4671412,35.6690034 51.661333,39.7289937 45.2305801,44.5507717 C41.923886,47.0300688 38.6078942,49.7066205 35.4014835,52.2955035 C31.3423322,55.5737812 27.1443782,58.9629731 22.9165384,61.9895354 C19.245238,64.6176037 15.7758325,68.9239961 16.3257306,71.5806231 C16.7208869,73.4933945 19.3481779,74.4464594 21.4820216,74.9087125 Z M159.070116,83.2910381 C162.359543,83.55338 171.095484,84.2507446 170.830497,92.1980446 C170.675755,96.8411647 168.474835,101.248509 164.463501,104.943213 C161.812301,107.385982 158.977802,109.172564 155.540939,110.5653 C150.869461,112.458811 146.494185,113.403906 142.518714,113.403906 C138.247042,113.403906 134.436274,112.312697 131.211268,110.13227 C128.142332,108.056116 125.275955,104.473654 122.241553,100.680655 C121.8019,100.131397 121.356934,99.574834 120.905327,99.015614 C118.914935,96.5509281 115.781579,95.7526117 112.978294,95.2970002 C103.871768,93.8139381 94.4803321,92.250513 82.5253611,90.2261631 C78.2470476,89.5015681 74.0378033,88.7829505 69.8936436,88.0742952 C64.9299498,87.2268311 60.0585698,86.3939785 55.2695416,85.5876922 C51.6414095,84.9833095 48.0498045,84.3809193 44.5100014,83.786499 C41.263743,83.2412263 38.0599887,82.7032593 34.9073724,82.1785755 C33.4449622,81.9348299 32.1266678,81.7329263 30.8920536,81.5443057 C26.6907788,80.9020661 23.3727946,80.3946503 18.700653,78.893656 C13.3192226,77.1648559 11.7671551,74.3235932 11.4125106,72.2447825 C10.7815889,68.5474217 13.3922767,64.172621 18.5751328,60.2428054 C21.7941619,57.801365 25.0776116,55.1653268 28.2528083,52.6169572 C32.1678437,49.4748315 36.216369,46.2251124 40.2854822,43.2204671 C41.5134551,42.3145573 42.7427564,41.3913793 43.9760423,40.466209 C47.2654691,37.9982024 50.6664694,35.446512 54.0767675,33.1764241 C57.7148615,30.7535802 61.5150028,28.3546459 65.190288,26.0347463 C68.1503072,24.1658091 71.2106098,22.2331129 74.1938734,20.2851411 C77.8791206,17.8775727 82.4848493,15.0177137 88.7010889,12.0575669 C97.1547762,8.03211265 104.809517,6.3272222 111.463417,6.99071482 C115.594959,7.40382034 119.238366,9.28006324 121.458546,12.1399223 C122.875131,13.964361 124.484978,15.9076837 126.189131,17.9652414 C128.773254,21.08545 131.446369,24.3119236 133.553648,27.2740629 C136.29052,31.1215231 138.949689,35.0267649 141.766257,39.1611409 L143.285782,41.3913793 C146.773119,46.5040582 150.198028,51.510472 153.755762,56.5494295 C155.649192,59.2293021 155.113904,62.5221914 152.16584,66.3357796 C149.526594,69.7508738 145.608238,72.310534 139.83298,74.3926655 C133.028987,76.8447324 129.582826,75.2102425 127.887307,73.4070569 C124.961158,70.2941541 122.482632,66.9992723 120.085129,63.8119839 C119.454207,62.9744822 118.826606,62.1396371 118.194356,61.3127619 C116.909268,59.6337736 114.736241,59.1622223 112.236462,58.7570866 C110.641227,58.4987297 108.651499,58.3028034 106.002291,58.8102192 C102.560779,59.470391 100.121437,60.1119665 97.5379781,60.7913989 C95.7262365,61.2675993 93.8540592,61.7604036 91.495076,62.3010272 C87.1450366,63.2979265 83.0214649,63.096687 79.570655,61.7218825 C74.4396008,59.6769438 67.6077145,51.7535534 68.0360772,47.0679273 C68.3966988,43.1228361 70.0703017,39.9136305 73.1525205,37.2576676 C78.1427794,32.9572524 83.2539097,30.7555727 88.3437879,30.7124025 C92.4374739,30.6938061 94.6955096,32.8230927 95.0494899,37.0849868 C95.2361099,39.3324933 95.7488169,40.1122134 97.2437693,40.4250312 C100.753023,41.1575962 105.087787,41.546792 110.884962,41.6490722 C112.211226,41.6809517 113.562062,41.5667167 115.501316,39.8737811 C116.349408,39.1332463 116.667525,38.5899661 116.682136,38.3289524 C116.692762,38.1383394 116.486883,37.8720126 116.313545,37.6827279 C114.432734,35.6344684 112.561221,33.62473 110.712952,31.6402295 C108.391825,29.1483133 106.199538,26.7945417 104.021197,24.4015848 C102.169608,22.3672726 99.1624356,21.8073884 94.8283352,22.6940377 C87.152342,24.262776 79.4550967,29.668348 71.5878345,35.5461355 C65.7680795,39.89437 59.8354227,44.2758122 53.9545679,48.5695858 C47.8518943,53.0240853 41.7465641,57.4234598 36.5032723,61.1971986 C33.9198138,63.0575018 33.1055927,64.6182702 33.3533125,65.1329917 C33.3685874,65.1588938 34.5035825,65.6676379 39.1298992,62.876187 C43.4121975,60.291953 47.0390014,59.1960943 50.2175188,59.5241877 C54.4121522,59.9585463 57.0394432,62.7599596 57.6152423,67.4117136 C57.8011982,68.9153646 58.4307917,70.5465336 61.6876761,71.2432341 C65.2859225,72.0143201 68.7852137,72.8040025 72.1689467,73.5677828 C79.1854606,75.1517967 86.4417249,76.7902715 94.7466475,78.2866167 C106.081987,80.3288988 125.846441,81.3045451 133.817307,81.629982 C142.169383,81.9700302 150.5281,82.6096132 159.070116,83.2910381 Z M92.2456744,152.193185 L92.2456744,142.566897 L96.618294,142.566897 L96.618294,153.091789 C96.618294,154.394864 96.0816785,154.821253 95.3351985,155.433605 C96.0650753,155.849367 96.618294,156.349477 96.618294,157.689746 L96.618294,169.195597 L92.2456744,169.195597 L92.2456744,158.610267 C92.2456744,157.220187 91.2348714,157.220187 90.2147705,157.220187 L87.5828307,157.220187 L87.5828307,169.195597 L83.370266,169.195597 L83.370266,140.442259 L83.370266,132.487654 L87.5828307,132.487654 L87.5828307,153.588578 L90.2081293,153.588578 C91.2567876,153.588578 92.2456744,153.588578 92.2456744,152.193185 Z M23.7980355,157.464931 L23.7980355,162.157862 C23.7980355,163.507429 23.9162503,165.895072 23.4752693,166.945768 C22.9785014,168.129296 22.1602955,168.545722 21.3447462,168.974103 C19.5861349,169.899937 15.9015519,170.07129 14.0971158,169.330091 C12.2913513,168.589556 10.6350158,167.969234 10.6350158,165.515839 L10.6350158,160.632294 C12.0423033,160.632294 13.440293,160.653547 14.8469164,160.653547 L14.8469164,164.441897 C14.8469164,165.956175 16.228303,165.999345 17.2497321,165.992703 C18.2718253,165.986062 19.5861349,165.992703 19.5861349,164.434592 L19.5861349,158.954634 C19.5861349,158.372169 19.5243709,157.225834 17.5299941,157.223842 C14.3806985,157.464931 10.7054133,156.292694 10.6350158,153.11736 L10.6350158,147.077519 C10.6350158,143.918789 13.6295696,142.56723 15.8404521,142.56723 L18.3408946,142.56723 C21.203951,142.56723 23.7980355,144.342521 23.7980355,146.453876 L23.7980355,150.691196 C22.6544069,150.691196 20.6228389,150.691196 19.5861349,150.651346 L19.5861349,147.682566 C19.5861349,146.837758 18.6185002,146.192198 17.2205104,146.210794 C15.8225207,146.229391 14.8469164,146.837758 14.8469164,147.682566 L14.8469164,152.246651 C14.8469164,153.715102 17.368611,153.739675 19.5861349,153.720415 C21.8036587,153.701818 23.7980355,155.782621 23.7980355,157.464931 Z M59.6771617,157.446069 L59.6771617,142.566965 L63.8890625,142.566965 L63.8890625,157.342461 C63.8890625,163.207629 60.2117849,169.637994 50.7260423,169.63733 L50.7260423,142.566965 C52.0994594,142.56763 53.595076,142.56763 55.0136537,142.56763 L55.0136537,164.864036 C57.1494899,164.864036 59.6771617,161.75379 59.6771617,157.446069 Z M27.2578109,169.195261 L27.2578109,132.486653 L31.3946652,132.486653 L31.3946652,169.195261 L27.2578109,169.195261 Z M99.3914272,169.195261 L99.3914272,142.566561 L103.603992,142.566561 L103.603992,169.195261 L99.3914272,169.195261 Z M137.827847,169.195261 L137.827847,142.566561 L139.707993,142.566561 L139.707993,169.195261 L137.827847,169.195261 Z M43.2792385,164.310122 L43.2792385,147.896152 C43.2792385,146.970982 42.5221324,146.213843 41.5970019,146.213843 L40.3736779,146.213843 C39.4478833,146.213843 38.6914413,146.970982 38.6914413,147.896152 L38.6914413,164.310122 C38.6914413,165.235957 39.4478833,165.992431 40.3736779,165.992431 L41.5970019,165.992431 C42.5221324,165.992431 43.2792385,165.235957 43.2792385,164.310122 Z M42.9013498,142.567623 C45.467541,142.567623 47.5668501,144.666358 47.5668501,147.23266 L47.5668501,164.972288 C47.5668501,167.537926 45.467541,169.637325 42.9013498,169.637325 L39.0693303,169.637325 C36.5031391,169.637325 34.40383,167.537926 34.40383,164.972288 L34.40383,147.23266 C34.40383,144.666358 36.5031391,142.567623 39.0693303,142.567623 L42.9013498,142.567623 Z M76.2245776,164.391814 L76.2245776,158.820867 C76.2245776,157.940195 75.5046627,157.220249 74.6240288,157.220249 L73.236665,157.220249 C72.3566952,157.220249 71.6361162,157.940195 71.6361162,158.820867 L71.6361162,164.391814 C71.6361162,165.272486 72.3566952,165.992432 73.236665,165.992432 L74.6240288,165.992432 C75.5046627,165.992432 76.2245776,165.272486 76.2245776,164.391814 Z M75.5936556,142.567623 C77.9924864,142.567623 80.437142,144.582675 80.437142,147.046696 L80.437142,157.983366 L80.437142,165.158252 L80.437142,165.2426 C80.437142,166.951475 79.4482552,168.440515 78.0150667,169.166438 C77.4293057,169.467965 76.2896618,169.637325 75.5936556,169.637325 L75.5611133,169.637325 L72.1494871,169.637325 L72.1169449,169.637325 C71.4209386,169.637325 70.2812947,169.467965 69.6955337,169.166438 C68.2623453,168.440515 67.2734585,166.951475 67.2734585,165.2426 L67.2734585,165.158252 L67.2734585,158.403113 C67.2734585,154.765526 70.3941965,153.587976 72.7797447,153.587976 L76.2245773,153.587976 L76.2245773,153.256562 L76.2245773,147.94198 C76.2245773,146.991571 75.4468833,146.213844 74.4958518,146.213844 L73.3648416,146.213844 C72.4144743,146.213844 71.6361161,146.991571 71.6361161,147.94198 L71.6361161,151.217601 L67.2734585,151.217601 L67.2734585,147.046696 C67.2734585,144.583339 69.7181141,142.567623 72.1169449,142.567623 L75.5936556,142.567623 Z M115.706795,164.391814 L115.706795,158.820867 C115.706795,157.940195 114.986216,157.220249 114.106246,157.220249 L112.718882,157.220249 C111.838912,157.220249 111.118333,157.940195 111.118333,158.820867 L111.118333,164.391814 C111.118333,165.272486 111.838912,165.992432 112.718882,165.992432 L114.106246,165.992432 C114.986216,165.992432 115.706795,165.272486 115.706795,164.391814 Z M115.075873,142.567623 C117.474704,142.567623 119.919359,144.582675 119.919359,147.046696 L119.919359,157.983366 L119.919359,165.158252 L119.919359,165.2426 C119.919359,166.951475 118.930472,168.440515 117.49662,169.166438 C116.910859,169.467965 115.771879,169.637325 115.075873,169.637325 L115.043331,169.637325 L111.63104,169.637325 L111.598498,169.637325 C110.903156,169.637325 109.763512,169.467965 109.177751,169.166438 C107.744562,168.440515 106.755676,166.951475 106.755676,165.2426 L106.755676,165.158252 L106.755676,158.403113 C106.755676,154.765526 109.876414,153.587976 112.261962,153.587976 L115.706795,153.587976 L115.706795,153.256562 L115.706795,147.94198 C115.706795,146.991571 114.928436,146.213844 113.977405,146.213844 L112.847059,146.213844 C111.896692,146.213844 111.118333,146.991571 111.118333,147.94198 L111.118333,151.217601 L106.755676,151.217601 L106.755676,147.046696 C106.755676,144.583339 109.199667,142.567623 111.598498,142.567623 L115.075873,142.567623 Z M129.249437,142.567424 C131.632329,142.567424 134.631531,143.205014 134.631531,145.210767 L134.631531,147.682095 L132.714857,147.682095 L132.714857,145.809173 C132.714857,144.575169 131.295616,143.723056 129.249437,143.723056 C127.203258,143.723056 125.718267,144.632287 125.718267,145.79124 L125.718267,169.19546 L123.844762,169.194132 L123.844762,142.561446 L125.718267,142.567424 L125.718267,143.053586 C126.660665,142.754052 127.771752,142.567424 129.249437,142.567424 Z M149.485219,142.567424 C151.868111,142.567424 154.901849,143.205014 154.901849,145.210767 L154.901849,169.19546 L153.021702,169.19546 L153.021702,145.79124 C153.021702,144.557901 151.531398,143.723056 149.485219,143.723056 C147.43904,143.723056 145.953386,144.632287 145.953386,145.79124 L145.953386,169.19546 L144.070582,169.19546 L144.070582,142.561446 L145.953386,142.561446 L145.953386,143.135278 C146.896448,142.835743 148.007534,142.567424 149.485219,142.567424 Z M167.83953,165.609877 L167.83953,146.48017 C167.83953,144.897485 166.542488,143.723256 164.957214,143.723256 L163.576491,143.723256 C161.990553,143.723256 160.693511,144.897485 160.693511,146.48017 L160.693511,165.609877 C160.693511,167.192562 161.991217,168.247243 163.576491,168.247243 L164.957214,168.247243 C166.542488,168.247243 167.83953,167.191898 167.83953,165.609877 Z M169.721005,146.098944 L169.712371,166.053535 L169.715028,172.773473 C169.716356,175.309223 167.645604,176.54854 165.205598,176.54854 L163.40249,176.54854 C160.963147,176.54854 158.820669,175.433421 158.820669,172.896342 L158.820669,171.326275 L160.814382,171.326275 L160.814382,172.519765 C160.814382,174.102451 161.991217,175.157132 163.576491,175.157132 L164.957214,175.157132 C166.542488,175.157132 167.83953,174.102451 167.83953,172.519765 L167.83953,169.073456 C167.101683,169.45601 166.189835,169.637325 165.205598,169.637325 L163.40249,169.637325 C160.963147,169.637325 158.822662,168.680275 158.822662,166.14386 L158.822662,146.136801 C158.822662,143.599722 160.962483,142.567623 163.40249,142.567623 L165.205598,142.567623 C167.646933,142.567623 169.721669,143.563194 169.721005,146.098944 Z" id="Combined-Shape" fill="#FEFEFE"></path>
        </g>
      </g>
    </g>
  </g>
</svg>
